<?xml version="1.0" standalone="no"?>
<!DOCTYPE svg PUBLIC "-//W3C//DTD SVG 20010904//EN"
 "http://www.w3.org/TR/2001/REC-SVG-20010904/DTD/svg10.dtd">
<svg version="1.0" xmlns="http://www.w3.org/2000/svg"
 width="588.000000pt" height="588.000000pt" viewBox="0 0 588.000000 588.000000"
 preserveAspectRatio="xMidYMid meet">
<metadata>
Created by potrace 1.14, written by Peter Selinger 2001-2017
</metadata>
<g transform="translate(0.000000,588.000000) scale(0.100000,-0.100000)"
fill="#000000" stroke="none">
<path d="M2920 5072 c-25 -8 -47 -18 -50 -21 -3 -4 -12 -6 -20 -6 -8 1 -26 -6
-40 -16 -14 -9 -31 -14 -37 -12 -7 3 -13 0 -13 -7 0 -6 -5 -8 -10 -5 -6 4 -16
2 -23 -3 -7 -5 -27 -13 -44 -17 -18 -3 -33 -11 -33 -17 0 -6 -9 -8 -20 -5 -11
3 -20 2 -20 -3 0 -4 -28 -17 -62 -28 -35 -12 -94 -33 -133 -47 -38 -15 -74
-28 -80 -29 -5 -2 -21 -8 -35 -13 -14 -6 -45 -17 -70 -26 -25 -8 -56 -20 -70
-25 -33 -13 -64 -25 -70 -26 -5 -1 -44 -16 -95 -36 -11 -4 -54 -20 -95 -35
-69 -24 -123 -45 -175 -65 -11 -5 -45 -16 -75 -26 -30 -10 -70 -26 -87 -36
-23 -13 -33 -14 -33 -5 0 8 -3 9 -8 1 -7 -10 -108 -52 -143 -59 -40 -8 -95
-43 -106 -67 -12 -24 -25 -137 -27 -235 -1 -35 -4 -41 -21 -39 -12 1 -27 6
-35 11 -8 5 -20 10 -27 11 -25 4 -89 27 -100 37 -7 5 -13 7 -13 3 0 -3 -22 3
-50 14 -27 11 -50 17 -50 14 0 -4 -6 -1 -14 5 -7 6 -25 12 -40 13 -14 1 -26 6
-26 10 0 3 -12 5 -28 2 -35 -6 -69 -45 -78 -89 -3 -19 -10 -35 -14 -35 -5 0
-7 -8 -6 -17 2 -10 0 -20 -3 -23 -4 -4 -119 -340 -127 -370 0 -3 -4 -12 -7
-20 -3 -8 -36 -105 -72 -215 -37 -110 -70 -209 -75 -220 -7 -16 -19 -52 -25
-75 -1 -3 -4 -12 -8 -20 -3 -8 -17 -51 -32 -95 -14 -44 -29 -87 -32 -95 -17
-42 7 -97 49 -115 18 -7 36 -11 40 -9 5 3 8 1 8 -4 0 -9 65 -28 83 -24 4 1 7
-3 7 -8 0 -6 8 -10 18 -10 9 -1 35 -8 57 -16 22 -8 47 -16 55 -19 8 -2 29 -9
45 -15 27 -10 43 -15 80 -23 6 -2 15 -5 20 -8 10 -6 115 -43 125 -44 3 0 11
-4 17 -8 7 -5 13 -6 13 -3 0 3 20 -3 45 -14 25 -11 46 -19 48 -18 1 0 11 -2
23 -6 17 -5 20 -14 19 -49 -3 -44 -15 -214 -21 -282 -2 -22 -6 -71 -9 -110 -2
-38 -7 -105 -10 -149 -7 -86 5 -131 36 -141 10 -4 19 -11 19 -17 0 -6 3 -8 7
-5 3 4 13 1 22 -7 24 -20 251 -156 262 -156 5 0 9 -4 9 -10 0 -5 4 -10 9 -10
7 0 105 -56 149 -86 5 -3 -29 -54 -48 -74 -8 -9 -33 -37 -55 -64 -22 -27 -47
-56 -55 -66 -8 -10 -28 -34 -45 -55 -16 -20 -35 -42 -41 -49 -6 -6 -41 -49
-79 -96 -38 -47 -71 -87 -75 -90 -3 -3 -25 -30 -50 -60 -25 -30 -47 -57 -50
-60 -3 -3 -23 -27 -45 -54 -21 -27 -48 -60 -60 -72 -11 -13 -31 -37 -45 -55
-14 -18 -31 -38 -38 -46 -15 -14 -20 -14 128 -17 l75 -1 40 41 c22 22 54 57
70 78 74 93 149 181 156 184 5 2 9 8 9 13 0 6 10 20 23 33 12 13 34 38 49 57
27 34 49 61 94 112 13 15 22 27 20 27 -3 0 7 12 21 28 14 15 42 47 61 72 20
25 43 52 52 61 8 9 21 25 29 37 14 20 14 20 48 1 54 -31 87 -53 95 -64 4 -5 8
-7 8 -2 0 4 37 -16 83 -45 45 -28 99 -61 120 -72 20 -11 37 -23 37 -28 0 -4 6
-8 14 -8 8 0 38 -16 68 -35 29 -19 61 -38 70 -41 10 -3 18 -10 18 -15 0 -6 5
-7 10 -4 6 3 10 2 10 -2 0 -5 17 -17 38 -28 20 -11 59 -34 87 -52 27 -18 55
-33 62 -33 7 0 13 -3 13 -8 0 -4 21 -18 48 -32 26 -13 49 -27 52 -31 3 -3 21
-14 40 -25 19 -10 37 -22 40 -25 3 -3 12 -8 20 -12 8 -4 33 -18 55 -32 22 -14
52 -30 67 -36 14 -6 29 -17 32 -25 3 -8 15 -14 26 -14 11 0 20 -4 20 -8 0 -12
46 -32 72 -32 12 0 52 18 90 40 39 22 71 40 73 40 2 0 30 18 63 39 32 22 82
52 109 68 28 15 119 70 203 121 84 50 157 92 161 92 5 0 9 5 9 10 0 6 7 10 15
10 8 0 15 5 15 10 0 6 6 10 14 10 8 0 22 7 30 16 9 8 16 12 16 7 0 -4 7 1 15
11 8 11 15 16 15 12 0 -4 13 2 29 13 16 12 33 21 38 21 6 0 18 9 28 20 10 11
22 20 26 20 11 0 133 73 137 82 2 5 10 8 17 8 8 0 20 6 27 12 8 7 28 21 46 30
l31 17 38 -46 c21 -25 45 -53 53 -62 8 -9 33 -39 55 -66 64 -80 69 -86 95
-116 14 -15 35 -41 48 -56 12 -15 39 -48 60 -72 20 -24 36 -49 34 -55 -2 -6
-1 -8 3 -4 4 4 28 -19 53 -50 26 -31 51 -62 57 -68 5 -6 20 -25 33 -41 13 -17
39 -48 57 -69 l34 -38 101 1 c55 0 103 3 106 6 3 3 -3 14 -13 24 -10 10 -44
50 -75 88 -31 39 -66 80 -77 92 -12 12 -21 25 -21 28 0 3 -15 23 -34 43 -28
30 -115 134 -206 245 -8 10 -23 28 -33 40 -11 12 -33 39 -50 61 -18 21 -37 43
-42 50 -6 6 -30 36 -55 66 -25 30 -48 57 -52 58 -5 2 -8 10 -8 18 0 8 -6 14
-12 14 -7 0 -2 6 12 13 53 29 105 59 139 83 20 13 41 24 48 24 7 0 13 4 13 8
0 5 15 16 33 25 17 9 50 28 72 42 22 13 61 36 88 50 26 14 47 30 47 36 0 5 5
7 10 4 6 -3 10 -1 10 4 0 6 7 11 15 11 8 0 25 10 37 22 18 18 22 33 21 73 -2
79 -13 255 -19 315 -5 54 -11 136 -18 235 -2 28 -5 50 -5 50 -1 0 -4 36 -7 81
l-4 81 102 33 c57 18 108 36 113 39 6 3 15 6 20 7 9 2 153 49 185 61 8 3 20 7
25 9 6 1 44 14 85 29 41 14 83 27 92 30 55 13 96 74 79 118 -5 12 -9 24 -9 27
0 3 -5 17 -11 33 -6 15 -13 38 -16 50 -7 31 -49 149 -58 165 -5 6 -6 16 -2 21
3 5 0 15 -7 23 -7 7 -15 24 -16 38 -2 14 -7 29 -12 34 -5 5 -6 15 -3 22 3 8
-1 14 -8 14 -7 0 -10 3 -7 6 4 3 0 21 -8 40 -8 19 -11 34 -8 34 4 0 2 6 -3 13
-6 6 -20 44 -32 82 -13 39 -25 77 -28 85 -4 8 -5 21 -4 28 1 6 -3 12 -9 12 -5
0 -9 3 -9 8 1 4 0 9 -1 12 -1 3 -3 12 -5 20 -2 8 -10 34 -19 58 -8 23 -13 42
-9 42 3 0 1 6 -5 13 -5 6 -24 57 -41 112 -17 55 -36 108 -41 117 -6 10 -10 24
-10 32 0 8 -9 18 -20 21 -11 3 -20 11 -20 16 0 16 -67 3 -165 -30 -49 -17 -97
-34 -105 -38 -18 -7 -28 -10 -57 -17 -12 -2 -31 -9 -41 -15 -16 -8 -21 -7 -26
5 -3 9 -4 20 0 25 3 5 2 9 -3 9 -4 0 -7 25 -7 55 1 31 -3 58 -8 61 -5 3 -4 12
3 20 6 8 8 14 3 14 -5 0 -9 15 -10 34 0 19 -8 41 -17 50 -17 18 -107 59 -107
49 0 -3 -6 -1 -12 4 -15 12 -90 38 -100 35 -5 -1 -8 3 -8 8 0 5 -3 9 -7 9 -5
-1 -11 0 -15 1 -5 1 -11 3 -15 5 -8 2 -13 4 -58 21 -11 4 -22 8 -25 9 -3 1
-12 4 -20 8 -82 32 -218 80 -227 80 -7 0 -13 4 -13 9 0 5 -4 7 -9 4 -4 -3 -16
1 -27 8 -10 8 -24 12 -31 9 -7 -3 -13 0 -13 6 0 6 -9 11 -20 11 -11 0 -28 4
-38 10 -9 5 -55 23 -102 39 -47 16 -98 34 -115 41 -16 7 -39 16 -50 21 -11 4
-31 11 -45 14 -14 4 -38 13 -55 20 -29 12 -76 30 -200 75 -30 11 -80 30 -111
42 -31 12 -63 21 -70 21 -8 0 -14 4 -14 8 0 3 -10 9 -22 12 -13 3 -50 15 -83
27 -77 29 -91 30 -145 12z m195 -203 c61 -23 115 -42 120 -43 6 -2 24 -8 40
-15 32 -14 104 -40 120 -45 6 -2 23 -8 38 -14 16 -7 34 -12 41 -12 7 0 16 -3
20 -7 4 -5 11 -8 14 -9 4 0 15 -4 24 -8 9 -4 22 -9 30 -10 7 -1 30 -10 52 -19
21 -9 42 -17 46 -17 4 0 25 -8 46 -17 22 -9 48 -18 59 -20 10 -2 22 -7 25 -11
3 -4 11 -8 18 -10 24 -5 328 -116 377 -137 16 -8 33 -11 37 -9 4 3 8 0 8 -5 0
-6 3 -10 8 -9 4 2 21 -2 37 -9 17 -6 37 -13 45 -16 27 -8 34 -11 129 -48 102
-39 98 -34 105 -126 2 -28 7 -56 10 -62 4 -6 2 -11 -4 -11 -6 0 -8 -5 -3 -12
4 -7 8 -29 10 -48 7 -121 14 -211 18 -255 3 -27 8 -68 10 -90 2 -22 4 -40 5
-40 1 0 3 -22 5 -50 2 -49 11 -151 20 -230 4 -37 11 -135 20 -275 2 -30 6 -80
9 -110 6 -61 19 -247 20 -297 1 -18 3 -33 6 -33 3 0 6 -21 7 -48 1 -26 3 -82
5 -124 2 -43 5 -78 8 -78 3 0 6 -37 8 -83 2 -45 4 -103 5 -129 1 -27 4 -48 7
-48 3 0 6 -40 8 -88 2 -88 2 -89 -25 -103 -16 -8 -30 -17 -33 -20 -3 -3 -18
-14 -35 -23 -16 -9 -43 -25 -60 -35 -16 -10 -46 -27 -65 -38 -43 -25 -279
-169 -300 -183 -8 -6 -23 -13 -32 -16 -10 -4 -18 -11 -18 -16 0 -5 -4 -6 -10
-3 -5 3 -10 2 -10 -4 0 -6 -11 -13 -25 -17 -14 -3 -25 -9 -25 -13 0 -4 -22
-18 -50 -32 -27 -13 -50 -27 -50 -31 0 -5 -5 -8 -11 -8 -6 0 -17 -7 -26 -15
-8 -8 -19 -13 -24 -10 -5 4 -9 1 -9 -4 0 -6 -15 -18 -32 -26 -18 -8 -68 -37
-110 -63 -172 -105 -243 -146 -250 -144 -5 1 -8 -3 -8 -8 0 -6 -7 -10 -15 -10
-8 0 -15 -4 -15 -10 0 -5 -7 -10 -15 -10 -8 0 -15 -3 -15 -7 0 -5 -29 -24 -65
-42 -36 -19 -65 -39 -65 -43 0 -4 -3 -7 -7 -6 -7 2 -250 -139 -263 -152 -3 -3
-20 -13 -38 -23 -31 -18 -33 -18 -61 2 -16 12 -34 21 -39 21 -6 0 -12 3 -14 8
-1 4 -37 27 -78 51 -41 25 -76 48 -78 53 -2 4 -8 8 -14 8 -10 0 -179 99 -213
125 -10 8 -25 15 -32 15 -7 0 -13 5 -13 10 0 6 -7 10 -15 10 -8 0 -15 5 -15
10 0 6 -5 10 -10 10 -6 0 -27 11 -48 24 -20 12 -40 23 -43 22 -3 -1 -13 7 -23
17 -10 9 -24 17 -31 17 -8 0 -18 6 -22 12 -4 7 -32 26 -61 41 -28 16 -76 44
-104 63 -29 19 -58 34 -65 34 -7 0 -13 4 -13 8 0 5 -10 14 -22 20 -13 6 -45
25 -73 42 -27 17 -66 38 -85 46 -49 22 -111 53 -135 67 -50 29 -100 61 -105
66 -3 4 -25 17 -50 30 -25 13 -52 30 -61 37 -8 8 -19 14 -22 14 -4 0 -39 21
-79 47 -40 26 -84 53 -98 60 -50 24 -57 36 -54 83 1 25 4 64 5 87 1 23 6 40
12 36 5 -3 4 4 -2 14 -6 11 -7 23 -4 27 4 4 8 30 9 59 1 29 2 52 3 52 1 0 4
32 6 70 3 39 7 97 10 130 3 33 7 87 10 120 13 164 22 269 29 340 2 17 7 69 10
117 4 49 9 98 11 110 5 22 12 100 20 212 6 87 16 210 20 246 2 19 6 67 10 105
3 39 8 84 10 100 5 34 16 153 19 205 1 19 5 41 9 48 5 7 3 12 -5 12 -8 0 -9 3
-3 8 6 4 10 21 9 37 0 17 3 38 9 49 6 12 6 16 -2 12 -7 -5 -7 2 0 24 6 16 12
30 14 30 6 0 231 81 250 90 11 5 40 16 65 24 51 17 160 58 205 77 17 6 37 13
46 15 9 2 29 9 45 15 16 7 31 13 34 13 3 1 11 5 18 10 7 4 16 5 19 2 4 -3 15
2 26 11 10 10 21 16 23 14 3 -1 17 2 32 7 60 24 227 85 237 86 5 2 26 9 45 18
29 12 102 39 120 43 3 1 18 7 33 13 15 7 39 15 53 18 13 3 27 10 30 15 3 5 11
9 19 9 8 0 26 5 42 12 15 6 31 12 36 13 4 2 10 4 15 5 4 2 12 4 17 5 12 2 64
24 85 35 27 15 53 10 165 -31z m-2077 -822 c6 0 12 -3 12 -7 0 -4 6 -7 13 -8
22 -2 42 -7 55 -15 6 -5 17 -5 22 -2 6 3 10 2 10 -4 0 -9 56 -27 72 -23 4 1 6
-15 4 -36 -3 -20 -5 -42 -5 -49 -1 -11 -37 -12 -56 -1 -15 8 -80 28 -109 34
-46 8 -76 -36 -125 -186 -24 -74 -49 -141 -54 -147 -5 -7 -7 -13 -3 -13 3 0
-3 -22 -14 -50 -11 -27 -18 -50 -15 -50 2 0 -4 -19 -15 -42 -32 -75 -28 -122
12 -147 18 -11 250 -94 293 -104 20 -5 35 -19 30 -27 -3 -5 -8 -44 -11 -87
-12 -179 -13 -199 -18 -222 -7 -32 -11 -34 -36 -21 -12 6 -32 14 -46 16 -13 2
-36 9 -51 16 -16 6 -31 11 -35 10 -5 -1 -8 2 -8 7 0 5 -6 8 -12 7 -7 0 -51 12
-98 27 -92 31 -100 33 -115 37 -5 1 -14 5 -20 10 -5 4 -27 11 -47 15 -21 4
-38 11 -38 16 0 5 -3 8 -7 8 -5 -1 -23 2 -40 6 -33 7 -40 15 -26 29 4 3 8 14
9 22 1 9 6 23 10 32 4 9 8 20 9 25 2 4 4 9 5 12 1 3 4 10 5 15 1 6 3 11 5 13
1 1 3 9 5 17 2 8 10 34 19 58 8 23 15 46 16 50 0 14 33 107 40 117 5 6 8 12 8
15 0 3 8 32 18 65 10 33 17 63 16 68 -1 4 3 7 9 7 5 0 8 3 6 8 -3 4 0 18 6 32
5 14 11 32 13 41 2 9 8 27 13 40 5 13 9 27 10 31 1 4 17 51 36 103 18 52 31
95 28 95 -3 0 0 7 7 15 7 8 9 15 5 15 -4 0 -2 6 4 13 6 8 8 17 4 20 -3 4 -1 7
6 7 7 0 10 4 6 10 -3 5 -1 17 5 27 5 10 14 30 20 45 l9 27 58 -20 c32 -12 64
-21 71 -22z m3995 -3 c1 -11 6 -24 10 -30 3 -6 21 -55 38 -108 17 -52 35 -98
40 -102 5 -3 7 -9 4 -14 -3 -4 2 -27 11 -51 9 -24 17 -48 18 -54 1 -5 5 -15 8
-21 4 -6 9 -21 11 -35 3 -13 12 -42 20 -64 8 -22 18 -49 23 -60 9 -26 15 -47
16 -62 1 -7 5 -13 10 -13 5 0 7 -4 3 -9 -3 -5 -1 -12 4 -16 6 -3 8 -12 4 -20
-3 -8 -1 -15 4 -15 5 0 10 -6 10 -12 1 -7 17 -60 37 -118 27 -78 32 -106 23
-112 -6 -4 -55 -22 -107 -38 -52 -17 -99 -32 -105 -34 -5 -2 -13 -4 -18 -5 -4
0 -21 -8 -37 -16 -17 -9 -30 -13 -30 -9 0 4 -7 1 -15 -6 -8 -7 -15 -9 -15 -6
0 4 -6 4 -12 -1 -7 -4 -17 -8 -23 -9 -5 -1 -29 -9 -52 -18 -24 -8 -43 -13 -43
-9 0 3 -6 1 -12 -4 -35 -27 -45 -22 -47 20 -3 72 -10 161 -15 184 -5 23 14 40
52 48 9 2 54 17 100 34 45 16 82 27 82 24 0 -3 7 0 15 7 8 7 15 9 15 4 0 -5 7
-1 14 9 8 10 18 18 23 19 4 0 7 4 5 9 -1 5 2 9 7 9 13 0 5 70 -12 113 -9 20
-13 37 -10 37 3 0 1 6 -5 13 -6 7 -13 24 -16 37 -5 24 -49 158 -63 190 -3 8
-5 19 -4 24 1 4 -2 13 -7 20 -5 6 -13 25 -17 41 -5 17 -9 32 -10 35 -20 55
-32 73 -54 85 -28 14 -47 15 -66 3 -5 -3 -26 -9 -45 -13 -19 -4 -41 -12 -47
-17 -10 -8 -13 -4 -14 13 0 13 -3 36 -5 52 -4 25 3 32 29 28 4 0 7 4 7 10 0 5
4 8 9 4 5 -3 12 -1 16 5 4 6 10 8 15 5 5 -3 17 -1 27 4 21 11 119 43 147 48
11 2 22 6 25 9 6 6 20 -18 24 -42z m-206 -329 c1 -5 7 -26 14 -45 21 -59 22
-65 21 -72 -1 -5 3 -8 10 -8 6 0 9 -3 6 -6 -4 -3 5 -37 18 -76 13 -39 21 -74
19 -79 -5 -7 -62 -29 -88 -33 -7 -1 -17 -5 -22 -8 -17 -11 -30 5 -31 37 -1 17
-5 75 -9 130 -4 55 -9 114 -10 130 -2 34 4 57 14 51 4 -3 13 -1 20 4 15 8 37
-6 38 -25z m-3669 16 c1 -1 4 0 6 2 2 1 13 -6 24 -16 12 -11 18 -27 16 -45 -6
-46 -16 -165 -18 -214 -1 -26 -5 -50 -8 -54 -4 -3 -4 -12 -1 -20 6 -17 -25
-12 -84 12 -18 7 -33 11 -33 8 0 -2 -13 2 -29 11 l-29 15 18 49 c11 27 16 51
13 55 -4 3 0 6 7 6 7 0 10 3 7 6 -3 4 -2 15 4 26 6 11 12 27 14 36 2 9 11 37
20 62 9 25 18 51 20 57 3 10 26 12 53 4z"/>
<path d="M2286 4261 c-4 -5 -14 -8 -23 -7 -10 2 -33 -17 -56 -43 -21 -25 -59
-70 -85 -100 -26 -30 -57 -68 -69 -84 -13 -17 -26 -33 -31 -36 -4 -3 -21 -24
-37 -46 -16 -22 -40 -50 -52 -61 -13 -12 -23 -24 -23 -28 0 -3 -8 -15 -17 -25
-58 -63 -153 -182 -153 -193 0 -5 -4 -6 -10 -3 -5 3 -10 0 -10 -9 0 -8 -3 -16
-8 -18 -4 -1 -46 -50 -92 -108 -47 -58 -91 -111 -97 -118 -29 -30 -12 -93 36
-139 13 -13 21 -23 17 -23 -4 0 3 -10 16 -23 13 -13 34 -38 48 -56 14 -18 35
-44 48 -57 12 -12 22 -28 22 -34 0 -5 5 -10 10 -10 6 0 10 -7 10 -15 0 -8 7
-15 15 -15 8 0 15 -4 15 -8 0 -10 68 -100 92 -123 10 -9 18 -19 18 -23 0 -4
16 -24 35 -44 19 -20 35 -40 35 -44 0 -4 6 -13 13 -20 7 -7 30 -35 52 -63 22
-27 42 -52 46 -55 3 -3 17 -21 32 -41 24 -32 27 -42 23 -100 -3 -35 -5 -64 -6
-64 -1 0 -3 -25 -5 -55 -3 -30 -7 -76 -10 -102 -3 -27 -7 -67 -10 -90 -2 -24
-7 -65 -10 -93 -3 -27 -8 -72 -11 -100 -2 -27 -6 -64 -8 -81 -2 -18 -6 -37
-10 -43 -4 -6 -2 -11 5 -11 7 0 8 -4 2 -12 -5 -7 -9 -20 -8 -28 0 -8 -4 -18
-10 -22 -6 -5 -5 -8 3 -8 8 0 10 -5 6 -12 -22 -36 1 -168 27 -152 4 2 13 -1
21 -8 7 -7 29 -21 48 -30 70 -35 181 -97 195 -108 8 -7 15 -9 15 -5 0 5 9 0
20 -10 11 -10 20 -14 20 -9 0 5 4 4 8 -1 4 -6 30 -22 57 -35 28 -14 52 -28 53
-32 2 -5 10 -8 18 -8 8 0 14 -4 14 -10 0 -5 9 -10 20 -10 11 0 20 -5 20 -12 0
-6 3 -9 6 -5 4 3 13 -1 21 -9 8 -8 19 -12 24 -9 5 4 9 2 9 -2 0 -5 19 -17 43
-28 23 -10 44 -21 47 -24 3 -3 25 -17 50 -30 25 -13 78 -41 118 -62 79 -41
127 -45 165 -12 9 9 17 12 17 7 0 -5 4 -3 9 4 4 7 14 14 22 15 8 2 21 7 29 12
34 22 57 35 95 54 22 11 85 45 140 76 55 30 125 68 155 83 30 15 57 30 60 34
3 3 30 18 60 33 93 46 158 81 174 94 9 8 16 10 16 7 0 -4 15 4 33 18 19 15 39
26 44 26 11 0 27 43 26 70 -1 30 -12 136 -17 175 -4 22 -8 56 -9 75 -2 20 -7
41 -11 48 -4 7 -2 12 4 12 6 0 8 5 4 12 -4 6 -8 27 -10 47 -2 20 -6 56 -8 81
-8 73 -16 152 -21 200 -2 25 -4 45 -5 45 -1 0 -3 26 -5 57 -3 32 -7 69 -9 82
-3 18 13 45 67 112 39 49 76 94 82 100 5 7 21 26 35 44 14 18 35 43 48 56 12
13 22 25 22 28 0 3 10 16 23 29 12 13 29 33 37 46 8 13 25 34 38 47 12 14 22
30 22 35 0 6 4 8 9 4 5 -3 12 3 15 12 4 10 21 35 39 55 17 20 48 56 67 79 19
23 43 51 53 61 9 10 17 20 17 23 0 3 9 16 21 28 16 17 20 31 16 59 -3 21 -11
44 -19 51 -7 8 -24 28 -38 46 -13 18 -33 43 -45 55 -46 52 -65 77 -65 86 0 6
-7 10 -15 10 -8 0 -15 4 -15 9 0 5 -12 22 -27 39 -44 47 -83 94 -83 98 0 2
-10 14 -22 27 -21 22 -48 54 -118 140 -14 17 -33 39 -42 49 -10 10 -18 20 -18
23 0 5 -33 45 -65 79 -11 12 -38 43 -60 71 -22 27 -48 59 -57 69 -10 11 -18
23 -18 26 0 3 -17 16 -38 27 -28 16 -42 19 -55 11 -10 -5 -21 -7 -24 -4 -3 3
-14 1 -25 -5 -11 -6 -27 -12 -36 -14 -9 -2 -38 -10 -63 -19 -25 -9 -54 -17
-65 -19 -10 -2 -26 -7 -34 -10 -24 -9 -90 -29 -108 -32 -9 -2 -17 -4 -17 -5 0
-2 -38 -11 -52 -12 -7 -1 -13 -4 -13 -8 0 -4 -6 -7 -12 -7 -7 -1 -62 -15 -122
-33 l-108 -32 -82 25 c-44 14 -96 28 -113 32 -18 4 -33 10 -33 15 0 5 -9 7
-20 5 -11 -2 -20 0 -20 4 0 5 -12 9 -26 9 -15 0 -29 4 -33 9 -3 5 -15 9 -26
10 -11 0 -33 5 -49 12 -16 6 -36 13 -45 15 -9 2 -23 5 -31 8 -26 10 -162 50
-174 52 -6 1 -16 5 -23 9 -6 4 -14 3 -17 -2z m117 -207 c20 -7 37 -10 37 -7 0
4 5 2 12 -5 7 -7 22 -12 35 -12 13 0 23 -5 23 -11 0 -5 4 -8 9 -5 5 4 22 1 38
-5 15 -7 37 -14 48 -16 11 -2 49 -12 85 -23 36 -11 83 -25 105 -31 22 -6 47
-14 55 -17 8 -3 18 -6 23 -7 4 -2 8 -3 10 -5 2 -2 25 -8 52 -13 8 -2 17 -6 21
-9 3 -4 16 -3 28 1 11 4 28 7 36 6 8 -1 20 2 25 6 6 4 35 14 65 22 30 9 87 25
125 37 69 21 125 37 155 45 8 2 16 4 18 4 1 1 4 0 5 -1 2 -2 10 2 18 8 8 6 22
10 32 9 9 -2 17 2 17 8 0 5 2 8 5 5 3 -3 40 5 82 19 42 13 76 22 77 21 1 -2
24 -30 52 -62 27 -33 58 -70 69 -84 11 -13 39 -45 62 -70 23 -26 43 -50 43
-54 0 -4 10 -17 23 -30 12 -13 38 -43 57 -67 19 -24 47 -57 61 -73 15 -17 30
-35 35 -42 5 -6 32 -38 59 -71 28 -33 57 -68 65 -78 8 -11 28 -33 43 -50 47
-54 48 -60 19 -94 -15 -17 -49 -60 -77 -95 -27 -35 -52 -65 -55 -68 -3 -3 -22
-26 -43 -52 -21 -26 -45 -54 -53 -63 -9 -8 -12 -15 -8 -15 4 0 1 -6 -7 -12 -9
-7 -35 -38 -59 -68 -24 -30 -50 -61 -59 -67 -8 -7 -12 -13 -8 -13 4 0 -2 -10
-14 -22 -12 -13 -39 -47 -61 -75 -22 -29 -45 -53 -51 -53 -6 0 -7 -3 -4 -6 4
-4 -1 -14 -11 -23 -39 -36 -51 -67 -48 -127 2 -33 5 -59 6 -59 1 0 3 -22 5
-48 2 -27 7 -72 10 -100 8 -63 14 -119 18 -173 2 -22 7 -46 11 -52 4 -7 2 -12
-4 -12 -6 0 -8 -4 -5 -10 10 -16 20 -87 30 -215 2 -16 4 -30 5 -30 4 0 7 -101
2 -112 -2 -7 -10 -13 -18 -13 -8 0 -14 -5 -14 -11 0 -5 -4 -8 -9 -4 -5 3 -15
0 -23 -7 -7 -7 -20 -14 -28 -16 -8 -2 -17 -7 -20 -11 -3 -4 -20 -14 -37 -22
-18 -8 -33 -18 -33 -22 0 -5 -4 -6 -9 -2 -5 3 -15 -1 -23 -7 -7 -7 -38 -25
-68 -41 -30 -15 -91 -47 -135 -71 -44 -25 -100 -55 -125 -68 -25 -13 -48 -27
-52 -33 -4 -5 -8 -7 -8 -3 0 4 -27 -8 -59 -27 -33 -19 -62 -35 -66 -35 -3 0
-13 -7 -21 -15 -14 -13 -18 -13 -37 0 -12 8 -29 15 -39 15 -10 0 -18 4 -18 8
0 4 -36 26 -80 47 -44 21 -80 43 -80 47 0 4 -9 8 -19 8 -11 0 -21 3 -23 8 -2
6 -121 71 -195 106 -13 6 -23 15 -23 19 0 5 -4 5 -10 2 -5 -3 -10 -1 -10 5 0
6 -4 9 -9 6 -5 -4 -11 -3 -13 1 -1 5 -25 19 -53 33 -27 13 -52 27 -55 30 -3 3
-27 16 -55 30 -27 14 -53 29 -57 35 -5 7 -8 7 -8 0 0 -5 -5 -3 -10 5 -5 8 -8
32 -5 53 13 95 15 116 20 180 4 37 8 78 11 90 3 12 7 54 10 92 8 98 9 111 19
190 5 39 8 74 7 78 -1 4 3 17 9 29 9 16 8 19 -2 13 -8 -6 -10 -4 -4 5 4 7 9
44 11 82 2 54 -2 74 -14 88 -10 10 -22 25 -27 32 -19 25 -127 153 -155 186
-16 17 -27 32 -25 32 3 0 -4 9 -15 20 -11 11 -20 25 -20 31 0 5 -4 7 -10 4 -5
-3 -10 -1 -10 5 0 6 -6 17 -12 24 -33 34 -68 76 -63 76 4 0 -5 10 -18 23 -13
12 -36 40 -53 62 -16 22 -39 49 -51 61 -13 12 -23 25 -23 29 0 4 -11 18 -25
31 -14 13 -25 28 -25 34 0 6 -6 13 -14 16 -36 14 -19 57 54 135 33 35 70 79
66 79 -2 0 13 18 35 40 22 22 37 40 33 40 -4 0 1 8 12 19 22 21 35 36 124 146
36 44 73 89 82 100 9 11 25 30 35 41 10 12 32 38 48 59 17 20 45 53 62 73 18
21 33 40 33 45 0 8 34 1 93 -19z"/>
<path d="M2489 3553 c-6 -7 -16 -13 -21 -13 -5 0 -36 -16 -69 -35 -32 -19 -59
-31 -59 -27 0 4 -4 3 -8 -3 -8 -12 -72 -49 -124 -73 -73 -33 -77 -125 -6 -161
31 -16 42 -11 313 138 96 52 84 42 94 78 11 37 -11 89 -43 100 -36 12 -66 11
-77 -4z"/>
<path d="M3402 3540 c-12 -5 -30 -25 -39 -45 -16 -34 -16 -38 0 -68 12 -22 35
-40 72 -57 30 -14 55 -28 55 -32 0 -5 3 -7 8 -6 4 1 41 -16 82 -37 41 -21 77
-39 80 -40 3 0 19 -8 35 -16 17 -8 36 -14 43 -13 6 1 21 2 31 3 11 0 29 16 40
34 18 29 19 38 9 70 -10 31 -21 41 -77 69 -36 18 -67 36 -69 41 -2 4 -10 7
-18 7 -8 0 -33 12 -57 27 -23 14 -44 26 -47 26 -7 0 -74 31 -80 37 -9 9 -45 9
-68 0z"/>
<path d="M2950 3028 c0 -5 -4 -7 -8 -4 -5 3 -52 -39 -106 -93 -85 -86 -99
-104 -103 -139 -4 -38 -2 -42 76 -121 l81 -81 0 -375 c0 -206 -2 -375 -5 -375
-3 0 -21 7 -40 14 -19 8 -35 13 -35 11 0 -3 -17 2 -37 9 -38 15 -59 15 -100 1
-22 -7 -45 -57 -39 -85 11 -51 31 -63 186 -110 58 -18 112 -36 120 -40 19 -9
74 -2 112 14 9 4 22 9 30 10 7 1 23 7 34 14 12 6 24 9 26 7 3 -3 21 1 40 9 19
8 47 17 61 20 39 7 69 40 74 81 3 30 -2 41 -27 66 -34 34 -61 35 -147 2 -10
-3 -26 -8 -35 -9 -10 -2 -23 -5 -30 -6 -10 -2 -13 71 -14 366 l-1 370 79 80
c43 44 78 85 79 91 7 71 10 66 -100 175 -91 91 -112 106 -139 106 -18 0 -32
-4 -32 -8z m57 -259 c-6 -10 -15 -15 -19 -13 -4 3 -8 -1 -8 -8 0 -7 -11 -2
-24 12 l-24 25 21 23 21 22 22 -21 c19 -17 21 -25 11 -40z"/>
</g>
</svg>
