<?xml version="1.0" standalone="no"?>
<!DOCTYPE svg PUBLIC "-//W3C//DTD SVG 20010904//EN"
 "http://www.w3.org/TR/2001/REC-SVG-20010904/DTD/svg10.dtd">
<svg version="1.0" xmlns="http://www.w3.org/2000/svg"
 width="260.000000pt" height="260.000000pt" viewBox="0 0 260.000000 260.000000"
 preserveAspectRatio="xMidYMid meet">
<metadata>
Created by potrace 1.14, written by Peter Selinger 2001-2017
</metadata>
<g transform="translate(0.000000,260.000000) scale(0.100000,-0.100000)"
fill="#000000" stroke="none">
<path d="M1370 2581 c28 -54 -10 -89 -120 -110 -30 -5 -99 -26 -152 -44 -85
-30 -100 -33 -117 -21 -34 24 -165 37 -256 25 -198 -27 -317 -160 -345 -388
-6 -48 -14 -89 -18 -91 -41 -15 -117 -70 -145 -104 -115 -141 -103 -379 24
-506 36 -35 85 -61 161 -86 25 -8 23 -18 -15 -56 l-32 -33 33 6 c28 6 32 4 32
-14 0 -12 -18 -55 -40 -95 -21 -41 -34 -71 -27 -68 7 4 24 16 39 26 14 10 31
18 37 18 10 0 12 -6 32 -150 7 -47 32 -143 56 -213 23 -70 43 -137 43 -149 0
-14 5 -18 16 -14 20 8 173 -145 225 -226 21 -31 53 -73 72 -95 19 -21 37 -48
41 -60 11 -34 82 -90 131 -102 56 -14 315 -14 352 0 15 5 57 40 93 77 36 37
95 93 132 125 66 57 67 57 79 35 12 -22 13 -21 28 22 21 59 76 141 146 215 48
52 185 243 198 278 3 8 14 2 29 -16 l23 -28 -3 83 c-3 88 7 123 30 100 26 -26
38 -14 21 23 -15 31 -16 46 -5 133 7 53 12 114 12 135 0 27 5 39 18 43 74 24
124 50 156 81 174 170 139 477 -67 588 -53 28 -57 32 -57 67 0 154 -106 336
-225 389 -65 29 -149 37 -219 21 l-58 -13 -102 49 c-55 27 -118 57 -140 66
-21 9 -40 25 -43 36 -3 11 -21 28 -40 40 -42 25 -46 25 -33 1z m50 -248 c0
-10 -7 -45 -15 -78 -20 -82 -19 -83 18 -48 44 43 157 114 169 107 5 -4 -3 -14
-19 -24 -16 -9 -66 -58 -112 -108 -78 -85 -87 -92 -122 -92 -40 0 -64 23 -99
92 -7 15 -40 55 -73 88 -33 33 -57 63 -54 67 13 12 56 -20 122 -88 36 -37 65
-66 65 -65 0 1 -7 23 -16 49 -9 26 -14 52 -12 59 5 14 48 -75 48 -98 0 -25 18
-15 25 14 10 43 57 142 66 142 5 0 9 -8 9 -17z m-595 -128 c0 -50 -3 -58 -22
-66 -37 -14 -27 -19 37 -19 33 0 60 4 60 10 0 6 -9 10 -20 10 -18 0 -20 7 -20
55 0 33 4 55 11 55 22 0 129 -84 129 -102 0 -4 -7 -8 -15 -8 -8 0 -15 -4 -15
-10 0 -5 11 -10 25 -10 33 0 67 -52 102 -155 26 -73 28 -93 28 -225 0 -173
-11 -215 -61 -236 -18 -8 -48 -30 -67 -49 -19 -19 -37 -35 -41 -35 -3 0 -6 14
-6 31 0 28 -3 31 -22 25 -13 -3 -29 -6 -35 -6 -7 0 -13 -4 -13 -10 0 -5 9 -10
20 -10 18 0 20 -7 20 -65 0 -72 -4 -77 -68 -79 l-36 -1 -1 66 c0 83 -20 112
-74 107 -31 -3 -39 -9 -56 -45 -11 -23 -23 -42 -27 -43 -9 0 -79 107 -101 154
-13 29 -16 52 -11 87 7 55 -8 104 -37 120 -29 15 -25 72 7 102 32 30 41 105
17 150 -16 32 -10 56 30 125 l20 33 21 -20 c56 -53 126 -8 126 80 0 45 2 48
28 51 56 7 67 -4 67 -67z m1083 -2 c3 -58 1 -63 -18 -63 -11 0 -20 -4 -20 -10
0 -5 25 -10 55 -10 54 0 74 13 36 23 -14 3 -19 14 -19 46 0 22 3 43 8 46 24
15 118 -108 135 -176 5 -21 2 -27 -14 -32 -25 -6 -28 -25 -3 -23 9 0 17 -5 16
-11 -1 -7 -2 -40 -2 -73 -2 -46 -5 -60 -17 -60 -8 0 -15 -4 -15 -10 0 -5 16
-10 35 -10 34 0 35 -1 35 -40 0 -38 -2 -40 -42 -52 -34 -9 -38 -13 -20 -16 20
-3 22 -9 22 -72 0 -55 -4 -71 -17 -80 -12 -8 -14 -13 -6 -16 9 -4 6 -16 -8
-44 -16 -31 -28 -41 -55 -46 -34 -6 -48 -24 -19 -24 8 0 15 -6 15 -14 0 -15
-74 -87 -109 -105 -21 -12 -21 -10 -21 69 0 44 -4 80 -9 80 -5 0 -23 -3 -40
-6 -34 -7 -42 -24 -11 -24 18 0 20 -7 20 -69 0 -76 -5 -81 -77 -81 -35 0 -39
9 -24 60 8 28 -4 76 -27 103 -22 25 -77 22 -96 -5 l-16 -22 -26 25 c-33 30
-59 88 -46 101 6 6 33 8 61 7 51 -4 69 4 31 14 -18 5 -20 14 -20 89 l0 85 -30
-5 c-35 -5 -51 -22 -20 -22 20 0 21 -5 18 -72 -3 -71 -4 -73 -30 -76 -25 -3
-27 -1 -34 54 -10 81 1 229 23 298 26 84 43 85 43 1 0 -58 -3 -68 -20 -72 -39
-10 -19 -23 35 -23 54 0 74 13 35 23 -18 5 -20 14 -20 92 0 73 -2 86 -15 81
-8 -3 -15 -1 -15 4 0 18 45 80 58 80 6 0 12 8 12 17 0 18 28 53 42 53 4 0 8
-7 8 -15 0 -9 11 -27 25 -40 51 -47 118 4 117 90 l-1 46 47 -3 47 -3 3 -62z
m-138 -3 c0 -38 -4 -52 -19 -59 -25 -14 -51 15 -51 57 0 24 6 35 27 46 16 8
31 12 35 9 5 -2 8 -26 8 -53z m-1080 11 c0 -54 -8 -71 -35 -71 -18 0 -25 7
-30 32 -6 27 -3 35 21 55 39 31 44 29 44 -16z m-180 -296 c0 -14 -4 -25 -10
-25 -5 0 -10 11 -10 25 0 14 5 25 10 25 6 0 10 -11 10 -25z m-143 -34 c2 -16
-11 -39 -46 -78 -46 -51 -70 -98 -57 -111 3 -3 24 16 47 41 49 56 74 61 83 15
6 -32 27 -90 67 -190 16 -38 17 -52 7 -73 -11 -25 -12 -25 -37 -8 -14 9 -32
23 -39 30 -7 7 -18 13 -23 13 -13 0 -11 -34 3 -48 23 -23 -14 -13 -48 13 -37
28 -44 30 -44 12 0 -26 56 -78 105 -96 28 -11 50 -24 49 -30 -1 -6 -2 -20 -2
-31 -4 -47 -107 -13 -173 57 -57 59 -79 113 -86 206 -5 73 -3 88 19 138 28 62
78 123 123 151 36 22 47 19 52 -11z m1912 14 c45 -23 108 -102 131 -161 42
-114 19 -239 -60 -327 -65 -73 -170 -115 -170 -68 0 11 -2 25 -5 33 -4 9 11
19 44 31 49 17 101 65 101 93 0 16 -6 14 -52 -18 -30 -21 -60 -26 -40 -6 14
14 16 48 3 48 -5 0 -16 -6 -23 -13 -17 -18 -59 -40 -64 -35 -2 3 11 51 30 109
18 57 36 125 40 152 5 29 12 47 21 47 7 0 32 -21 54 -47 22 -26 43 -45 46 -41
14 13 -11 62 -55 111 -39 43 -47 58 -43 80 6 32 6 31 42 12z m-1515 -441 c18
-18 22 -119 6 -129 -6 -4 -22 1 -37 10 -23 15 -25 22 -21 67 3 28 12 54 19 59
18 11 15 12 33 -7z m417 2 c19 -8 47 -24 63 -37 l29 -23 41 22 c62 32 131 48
162 37 65 -24 93 -122 55 -195 l-21 -40 83 -54 c102 -66 177 -145 203 -211 15
-38 19 -74 18 -155 -1 -218 -95 -423 -261 -566 -71 -61 -123 -114 -123 -126 0
-3 -21 -16 -46 -29 -43 -20 -56 -22 -180 -16 -160 6 -211 24 -240 85 -9 20
-30 50 -46 65 -63 64 -151 219 -174 307 -40 156 -54 314 -34 387 34 125 124
238 236 293 57 28 64 35 64 60 0 16 -4 32 -10 35 -15 9 -12 62 5 95 17 32 89
80 121 80 12 0 37 -6 55 -14z m495 -18 c8 -25 7 -108 -1 -116 -3 -3 -18 3 -33
15 -46 34 -41 123 9 123 10 0 21 -10 25 -22z"/>
<path d="M641 2031 c-14 -4 -27 -13 -29 -20 -3 -10 0 -12 12 -8 14 6 16 -3 16
-68 0 -60 -3 -75 -15 -75 -8 0 -15 -4 -15 -10 0 -5 22 -10 49 -10 28 0 53 5
56 10 3 6 -3 10 -14 10 -20 0 -21 6 -21 90 0 50 -3 90 -7 89 -5 -1 -19 -4 -32
-8z"/>
<path d="M792 2017 c-28 -30 -36 -95 -16 -133 18 -35 31 -44 65 -44 33 0 58
28 66 73 15 97 -59 164 -115 104z m68 -12 c13 -15 16 -91 5 -124 -7 -23 -34
-28 -53 -9 -15 15 -16 102 -2 129 13 23 33 25 50 4z"/>
<path d="M1001 2031 c-14 -4 -27 -13 -29 -20 -3 -9 2 -11 17 -6 20 6 21 3 21
-65 0 -63 -2 -72 -20 -77 -39 -10 -19 -23 35 -23 54 0 74 13 35 23 -18 5 -20
14 -20 91 0 47 -3 86 -7 85 -5 -1 -19 -4 -32 -8z"/>
<path d="M808 1754 c-42 -22 -58 -92 -34 -149 24 -57 93 -60 121 -5 43 83 -17
191 -87 154z m51 -28 c16 -19 16 -112 1 -131 -30 -36 -60 -4 -60 65 0 68 30
101 59 66z"/>
<path d="M645 1753 c-28 -7 -43 -23 -22 -23 14 0 17 -11 17 -75 0 -64 -3 -75
-17 -77 -10 0 5 -4 32 -7 56 -7 80 -2 47 10 -20 8 -22 15 -22 94 0 47 -3 84
-7 84 -5 -1 -17 -3 -28 -6z"/>
<path d="M978 1749 c-25 -14 -39 -76 -28 -124 14 -64 64 -84 111 -46 21 16 24
28 24 81 0 53 -3 65 -24 81 -25 21 -56 24 -83 8z m66 -25 c3 -9 6 -37 6 -64 0
-27 -3 -55 -6 -64 -8 -22 -41 -20 -54 3 -14 27 -13 114 2 129 17 17 45 15 52
-4z"/>
<path d="M1693 2018 c-21 -22 -28 -54 -25 -109 3 -35 37 -69 71 -69 40 0 64
31 69 93 3 45 1 56 -22 80 -30 33 -65 35 -93 5z m65 -10 c12 -12 17 -104 6
-132 -8 -22 -41 -20 -54 3 -5 11 -10 38 -10 61 0 67 27 99 58 68z"/>
<path d="M1870 2015 c-18 -19 -24 -37 -24 -73 -1 -66 23 -102 69 -102 47 0 75
37 75 100 0 85 -69 129 -120 75z m68 -7 c12 -12 17 -104 6 -132 -10 -25 -43
-19 -54 10 -28 73 7 163 48 122z"/>
<path d="M1730 1753 c-34 -6 -50 -23 -22 -23 21 0 22 -4 22 -75 0 -69 -2 -75
-21 -75 -11 0 -18 -3 -16 -7 3 -5 29 -6 59 -4 37 2 47 6 33 11 -18 7 -20 16
-19 94 1 47 -2 85 -5 85 -3 -1 -17 -4 -31 -6z"/>
<path d="M1871 1738 c-24 -25 -36 -76 -26 -110 11 -35 46 -68 72 -68 67 0 101
123 48 175 -30 31 -68 32 -94 3z m68 -12 c19 -23 10 -127 -12 -140 -25 -15
-47 16 -47 65 0 73 30 110 59 75z"/>
<path d="M1054 1325 c-17 -27 -17 -28 2 -42 10 -7 29 -11 41 -8 18 4 24 0 29
-20 10 -39 38 -28 41 15 4 45 -16 69 -60 77 -30 5 -37 2 -53 -22z"/>
<path d="M1420 1328 c-26 -28 -25 -91 2 -96 11 -2 18 5 20 20 2 17 10 23 28
24 43 2 48 4 54 19 8 21 -28 55 -59 55 -13 0 -34 -10 -45 -22z"/>
<path d="M1260 1265 c-5 -14 -21 -30 -35 -35 -28 -11 -32 -31 -10 -50 9 -7 15
-29 15 -54 0 -49 13 -75 26 -55 5 8 16 32 24 54 12 30 23 41 48 49 40 11 40
20 3 52 -17 14 -33 34 -36 44 -9 27 -24 25 -35 -5z"/>
<path d="M1165 930 c-2 -3 -2 -30 0 -60 4 -72 -14 -112 -65 -146 -37 -25 -39
-29 -22 -35 18 -7 91 -4 96 3 1 2 13 48 25 103 13 55 25 109 28 121 4 18 0 21
-27 20 -18 -1 -33 -3 -35 -6z"/>
<path d="M1023 564 c-40 -20 -63 -68 -63 -133 0 -57 18 -75 48 -48 44 39 87
51 180 53 51 0 95 4 98 7 12 12 -59 98 -96 117 -47 24 -122 26 -167 4z"/>
<path d="M1235 283 c-27 -2 -61 -6 -73 -9 -24 -5 -72 -49 -72 -65 0 -5 37 -7
83 -4 45 3 87 5 93 5 13 0 45 65 37 74 -4 3 -9 5 -12 4 -3 -1 -28 -3 -56 -5z"/>
</g>
</svg>
