<svg viewBox="0 0 1024 1024" xmlns="http://www.w3.org/2000/svg"><defs><style/></defs><path d="M862.805 0c59.99 0 108.374 48.512 111.232 105.6V1024L859.82 927.019l-62.72-57.088-68.438-59.648 28.587 94.08H158.293c-59.818 0-108.373-45.44-108.373-105.643V105.813C49.92 48.725 98.56.128 158.507.128h704l.298-.128zM601.771 242.475h-1.28l-8.619 8.533c88.448 25.6 131.243 65.579 131.243 65.579-57.003-28.502-108.374-42.752-159.744-48.512-37.12-5.76-74.24-2.731-105.6 0h-8.534c-20.053 0-62.72 8.533-119.893 31.36-19.925 8.661-31.36 14.336-31.36 14.336s42.752-42.752 136.96-65.579l-5.76-5.76s-71.339-2.73-148.352 54.187c0 0-77.013 134.144-77.013 299.52 0 0 42.666 74.24 159.701 77.056 0 0 17.067-22.742 34.347-42.752-65.707-19.968-91.307-59.904-91.307-59.904s5.717 2.816 14.293 8.533h2.56c1.28 0 1.878.64 2.56 1.28v.256c.683.683 1.28 1.28 2.56 1.28 14.08 5.803 28.16 11.52 39.68 17.067a349.013 349.013 0 0076.8 22.869c39.68 5.76 85.163 8.533 136.96 0 25.6-5.76 51.2-11.392 76.8-22.827 16.64-8.533 37.12-17.066 59.606-31.445 0 0-25.6 39.936-94.08 59.904 14.08 19.883 33.92 42.667 33.92 42.667 117.077-2.56 162.56-76.8 165.12-73.643 0-165.12-77.44-299.52-77.44-299.52-69.76-51.797-135.04-53.76-146.56-53.76l2.389-.853zm7.168 188.288c29.994 0 54.186 25.6 54.186 56.96 0 31.573-24.32 57.173-54.186 57.173-29.867 0-54.187-25.6-54.187-56.917.085-31.574 24.448-57.088 54.187-57.088zm-193.835 0c29.867 0 54.016 25.6 54.016 56.96 0 31.573-24.32 57.173-54.187 57.173-29.866 0-54.186-25.6-54.186-56.917 0-31.574 24.32-57.088 54.186-57.088z"/></svg>