<svg style="width:1em;height:1em;vertical-align:middle" viewBox="0 0 1024 1024" xmlns="http://www.w3.org/2000/svg" overflow="hidden"><path d="M853.333 170.667A85.333 85.333 0 01938.667 256v512a85.333 85.333 0 01-85.334 85.333H170.667A85.333 85.333 0 0185.333 768V256a85.333 85.333 0 0185.334-85.333h682.666zm28.886 71.552a32 32 0 00-42.667-15.104L539.52 370.048a64 64 0 01-55.04 0L184.448 227.115a32 32 0 00-27.563 57.77l318.422 151.723a85.333 85.333 0 0073.386 0l318.422-151.723a32 32 0 0015.104-42.666z"/></svg>