<svg xmlns="http://www.w3.org/2000/svg" viewBox="0 0 50 30"><g><path d="M13.8 7.6h-2.4V9l-.4-.3c-.8-.9-2-1.5-3.3-1.5h-.9c-5.6.3-8.7 7.2-5.4 12.1 2.3 3.4 7.1 4.1 9.7 1.5l.3-.3v.7c0 1-.1 1.5-.4 2.2-1 2.4-4.1 3-6.8 1.3l-.4-.2c-.1.1-1.9 3.5-1.9 3.6 0 .1.5.4.8.6 2.2 1.4 5.6 1.7 8.3.8 2.7-.9 4.5-3.2 5-6.4.2-1.1.2-.8.2-8.4V7.6h-2.4zm-4.1 10c-2.2 1.2-4.9-.4-4.9-2.9C4.8 12.6 7 11 9 11.6c2.8.8 3.3 4.5.7 6zM45.6 7.7c-2.4-1-5-.6-6.7 1l-.3.3V0h-4.8v22h4.8v-1.4l.3.3c2.4 2.4 6.9 1.9 9.3-.9 3.3-4.1 1.9-10.4-2.6-12.3zm-1.9 9.8c-2.1 1.4-5.1-.2-5.1-2.8 0-2.1 1.9-3.7 3.9-3.3 2.9.7 3.7 4.4 1.2 6.1zM31.5 12.5c-.7-3.7-3.1-5.5-7.1-5.3-1.7.1-4 .7-4.8 1.4l-.1.1.7 1.7c.4.9.7 1.7.7 1.7s.1 0 .2-.1c2.7-1.4 5.4-.9 5.6 1.1v.2l-.4-.1c-3-.8-6.3-.1-7.7 1.6-1.8 2.2-.9 5.8 1.7 7.1 2.1 1 4.6.6 6.1-.8l.2-.2v1.2h4.8v-4c.3-4.4.3-4.8.1-5.6zm-4.6 3.9c-.1.7-.5 1.5-1 2-1.2 1.1-3 .7-3.2-.7-.2-1 .6-1.7 2-1.8H25.3c.5 0 1 .1 1.4.2l.3.1-.1.2z"/></g></svg>