<svg style="width:1em;height:1em;vertical-align:middle" viewBox="0 0 1024 1024" xmlns="http://www.w3.org/2000/svg" overflow="hidden"><path d="M636.34 838a36 36 0 1036 36 36 36 0 00-36-36zm223.84-295.2c-19-29.24-78.74-104.9-174.52-147.42q-18.2-8.12-36.76-14.54a156.86 156.86 0 00-95.76-208.26c-24.82-8.2-46.66-12-64.82-11.54-1.2-4-3.78-22 18.8-70L461.32 64l-10.96 15.12c-17.38 24.12-33.84 47.1-48.68 69.78a102 102 0 00-16.58-2.5c-83.06-4.9-78-4.66-82.12-4.66-101.22 0-101.5 104.24-101.5 91.76l-4.72 73.36c-3.22 54 39.5 100.42 95.26 103.7l17.86 1.08a428 428 0 00-92.58 71.08C92 609.32 92 748 92 859.54v67.28l46.64-59.6a297.2 297.2 0 0029.12 75.12c11.56 20.26 29.74 18.9 39.28 14.66 8.42-3.74 20-13.84 7.5-40.22a356.58 356.58 0 01-31.52-106.26l93.64-119.66-49.32 148.22c116.46-84.8 314.76-123.52 472.5-77.18 68.4 20.1 134.9 1.38 169.48-47.68 1.44-2 2.4-4.32 3.7-6.44a312.18 312.18 0 015.6 56.86c0 46.6-7.38 105.86-29.76 163.28-5.04 12.92 3.52 29 17.2 31.48 14.84 3.14 30.66-6.2 36.74-22.3C922 886 932 828 932 764.64c0-77.16-26-154.92-71.82-221.84zM348.74 257.16l-31.4-1.86-2.78 43.58 26.26 1.56a186 186 0 00.64 39.14l-44.76-2.68a24.56 24.56 0 01-23.52-25.58L278 238c2-24.34 27.74-22.54 26.52-22.64l58.22 3.46a288.7 288.7 0 00-14 38.34zm296.84 344.36a21.02 21.02 0 01-28.7-2.78l-19.36-22.98-68.84 54a16.18 16.18 0 01-22.26-2.16l-31.56-37.28a14.76 14.76 0 012.68-20.68l69.14-54.36-28.28-33.48-34.18 26.9a15.5 15.5 0 01-21.18-2s-7.44-8.84-7.6-9.06a14.76 14.76 0 012.74-20.68L492 450.38s-37.02-44-37.2-44.28a19.12 19.12 0 013.48-26.84 20.76 20.76 0 0128.6 2.74l162.18 192.64a19.16 19.16 0 01-3.48 26.88zM438.88 838a36 36 0 1036 36 36 36 0 00-36-36z"/></svg>