<svg viewBox="0 0 1024 1024" xmlns="http://www.w3.org/2000/svg"><defs><style/></defs><path d="M91.666 540.286c-15.594-15.596-15.594-40.974.036-56.604L442.29 132.228c15.6-15.64 15.57-40.968-.07-56.57-15.642-15.6-40.97-15.57-56.572.07L35.098 427.144c-46.79 46.79-46.79 122.924-.036 169.678l350.586 351.45a39.876 39.876 0 0028.322 11.75c10.22 0 20.444-3.894 28.25-11.682 15.64-15.602 15.672-40.93.07-56.57L91.666 540.286z"/><path d="M983.998 471.998H257.96c-22.094 0-40.002 17.908-40.002 40.002s17.908 40.002 40.002 40.002h726.036c22.094 0 40.002-17.908 40.002-40.002s-17.908-40.002-40-40.002z"/></svg>