<?xml version="1.0" standalone="no"?><!DOCTYPE svg PUBLIC "-//W3C//DTD SVG 1.1//EN" "http://www.w3.org/Graphics/SVG/1.1/DTD/svg11.dtd"><svg t="1631476100613" class="icon" viewBox="0 0 1024 1024" version="1.1" xmlns="http://www.w3.org/2000/svg" p-id="2148" width="20" height="20" xmlns:xlink="http://www.w3.org/1999/xlink"><defs><style type="text/css"></style></defs><path d="M91.666 540.286c-15.594-15.596-15.594-40.974 0.036-56.604L442.29 132.228c15.6-15.64 15.57-40.968-0.07-56.57-15.642-15.6-40.97-15.57-56.572 0.07L35.098 427.144c-46.79 46.79-46.79 122.924-0.036 169.678l350.586 351.45a39.876 39.876 0 0 0 28.322 11.75c10.22 0 20.444-3.894 28.25-11.682 15.64-15.602 15.672-40.93 0.07-56.57L91.666 540.286z" p-id="2149" fill="#eb7132"></path><path d="M983.998 471.998H257.96c-22.094 0-40.002 17.908-40.002 40.002s17.908 40.002 40.002 40.002h726.036c22.094 0 40.002-17.908 40.002-40.002s-17.908-40.002-40-40.002z" p-id="2150" fill="#eb7132"></path></svg>