<svg viewBox="0 0 1024 1024" xmlns="http://www.w3.org/2000/svg"><defs><style/></defs><path d="M872.405 872.619H720.768V635.008c0-56.661-1.152-129.579-79.019-129.579-79.061 0-91.136 61.654-91.136 125.398v241.792H398.976V384H544.64v66.603h1.963c20.352-38.4 69.845-78.934 143.786-78.934 153.643 0 182.059 101.12 182.059 232.747v268.203zM227.712 317.14a87.979 87.979 0 01-88.021-88.106 88.064 88.064 0 1188.021 88.106zm76.032 555.478H151.68V384h152.064v488.619zM948.267 0H75.563C33.792 0 0 33.024 0 73.77v876.46C0 991.018 33.792 1024 75.563 1024h872.576c41.728 0 75.861-32.981 75.861-73.77V73.77C1024 33.025 989.867 0 948.139 0h.128z"/></svg>