<svg viewBox="0 0 1024 1024" xmlns="http://www.w3.org/2000/svg"><defs><style/></defs><path d="M128 213.34h768q17.674 0 30.167 12.493T938.66 256t-12.493 30.167T896 298.66H128q-17.674 0-30.167-12.493T85.34 256t12.493-30.167T128 213.34zm0 512h768q17.674 0 30.167 12.493T938.66 768t-12.493 30.167T896 810.66H128q-17.674 0-30.167-12.493T85.34 768t12.493-30.167T128 725.34zm0-256h768q17.674 0 30.167 12.493T938.66 512t-12.493 30.167T896 554.66H128q-17.674 0-30.167-12.493T85.34 512t12.493-30.167T128 469.34z"/></svg>