<?xml version="1.0" standalone="no"?><!DOCTYPE svg PUBLIC "-//W3C//DTD SVG 1.1//EN" "http://www.w3.org/Graphics/SVG/1.1/DTD/svg11.dtd"><svg t="1631475640933" class="icon" viewBox="0 0 1024 1024" version="1.1" xmlns="http://www.w3.org/2000/svg" p-id="7593" width="20" height="20" xmlns:xlink="http://www.w3.org/1999/xlink"><defs><style type="text/css"></style></defs><path d="M988.938 427.178L638.352 75.728c-15.604-15.642-40.93-15.67-56.572-0.07-15.64 15.602-15.672 40.93-0.07 56.57l350.622 351.488c15.594 15.596 15.594 40.974-0.036 56.604L581.71 891.772c-15.6 15.64-15.57 40.968 0.07 56.57a39.882 39.882 0 0 0 28.252 11.68 39.884 39.884 0 0 0 28.322-11.752l350.55-351.414c46.788-46.79 46.788-122.924 0.034-169.678z" p-id="7594" fill="#eb7132"></path><path d="M766.038 471.998H40.002C17.908 471.998 0 489.908 0 512s17.908 40.002 40.002 40.002h726.036c22.094 0 40.002-17.908 40.002-40.002s-17.908-40.002-40.002-40.002z" p-id="7595" fill="#eb7132"></path></svg>