<svg viewBox="0 0 1024 1024" xmlns="http://www.w3.org/2000/svg"><defs><style/></defs><path d="M1002.453 264.747a128.299 128.299 0 00-89.088-89.088c-79.786-21.376-400.896-21.376-400.896-21.376s-320.298-.427-400.896 21.376a128.299 128.299 0 00-89.088 89.088A1333.205 1333.205 0 00.213 512.427a1333.205 1333.205 0 0022.272 246.741 128.299 128.299 0 0089.088 89.088c79.702 21.419 400.896 21.419 400.896 21.419s320.256 0 400.896-21.419a128.299 128.299 0 0089.088-89.088 1333.205 1333.205 0 0021.334-246.741 1333.205 1333.205 0 00-21.334-247.68zM409.984 665.643V358.74l267.264 153.686z"/></svg>