<?xml version="1.0" standalone="no"?><!DOCTYPE svg PUBLIC "-//W3C//DTD SVG 1.1//EN" "http://www.w3.org/Graphics/SVG/1.1/DTD/svg11.dtd"><svg t="1625710858532" class="icon" viewBox="0 0 1024 1024" version="1.1" xmlns="http://www.w3.org/2000/svg" p-id="1851" xmlns:xlink="http://www.w3.org/1999/xlink" width="200" height="200"><defs><style type="text/css"></style></defs><path d="M1002.453333 264.746667a128.298667 128.298667 0 0 0-89.088-89.088c-79.786667-21.376-400.896-21.376-400.896-21.376s-320.298667-0.426667-400.896 21.376A128.298667 128.298667 0 0 0 22.485333 264.746667a1333.205333 1333.205333 0 0 0-22.272 247.68 1333.205333 1333.205333 0 0 0 22.272 246.741333 128.298667 128.298667 0 0 0 89.088 89.088c79.701333 21.418667 400.896 21.418667 400.896 21.418667s320.256 0 400.896-21.418667a128.298667 128.298667 0 0 0 89.088-89.088 1333.205333 1333.205333 0 0 0 21.333334-246.741333 1333.205333 1333.205333 0 0 0-21.333334-247.68zM409.984 665.642667V358.741333l267.264 153.685334z" fill="#e6e6e6" p-id="1852"></path></svg>